<?xml version="1.0" standalone="no"?>
<!DOCTYPE svg PUBLIC "-//W3C//DTD SVG 20010904//EN"
 "http://www.w3.org/TR/2001/REC-SVG-20010904/DTD/svg10.dtd">
<svg version="1.0" xmlns="http://www.w3.org/2000/svg"
 width="48.000000pt" height="48.000000pt" viewBox="0 0 48.000000 48.000000"
 preserveAspectRatio="xMidYMid meet">

<g transform="translate(0.000000,48.000000) scale(0.100000,-0.100000)"
fill="#000000" stroke="none">
<path d="M60 380 c-11 -11 -20 -24 -20 -28 0 -4 46 -32 103 -61 l102 -53 97
53 c54 30 98 57 98 62 0 4 -9 16 -20 27 -18 18 -33 20 -180 20 -147 0 -162 -2
-180 -20z"/>
<path d="M40 215 c0 -137 -3 -135 200 -135 203 0 200 -2 200 135 l0 95 -100
-52 -100 -53 -100 53 -100 53 0 -96z"/>
</g>
</svg>
