<?xml version="1.0" standalone="no"?>
<!DOCTYPE svg PUBLIC "-//W3C//DTD SVG 20010904//EN"
 "http://www.w3.org/TR/2001/REC-SVG-20010904/DTD/svg10.dtd">
<svg version="1.0" xmlns="http://www.w3.org/2000/svg"
 width="48.000000pt" height="48.000000pt" viewBox="0 0 48.000000 48.000000"
 preserveAspectRatio="xMidYMid meet">

<g transform="translate(0.000000,48.000000) scale(0.100000,-0.100000)"
fill="#000000" stroke="none">
<path d="M150 427 c-81 -41 -18 -264 99 -355 51 -38 83 -41 116 -7 32 31 31
53 -3 94 -27 33 -30 34 -62 23 -30 -11 -36 -10 -56 9 -13 12 -29 37 -35 56
-10 32 -9 37 15 62 31 32 33 55 6 99 -21 34 -40 39 -80 19z"/>
</g>
</svg>
