<?xml version="1.0" standalone="no"?>
<!DOCTYPE svg PUBLIC "-//W3C//DTD SVG 20010904//EN"
 "http://www.w3.org/TR/2001/REC-SVG-20010904/DTD/svg10.dtd">
<svg version="1.0" xmlns="http://www.w3.org/2000/svg"
 width="1706.000000pt" height="1688.000000pt" viewBox="0 0 1706.000000 1688.000000"
 preserveAspectRatio="xMidYMid meet">

<g transform="translate(0.000000,1688.000000) scale(0.100000,-0.100000)"
fill="#000000" stroke="none">
<path d="M5900 15845 l-275 -135 -353 0 -353 0 -922 -599 c-507 -329 -989
-642 -1070 -695 l-148 -96 41 -58 c22 -31 107 -149 188 -262 l147 -204 93 3
c73 2 91 0 87 -11 -2 -7 -76 -380 -165 -828 -88 -448 -164 -824 -169 -835 -5
-11 -99 -127 -210 -257 -110 -130 -201 -240 -201 -243 0 -3 88 -5 195 -5 l195
0 0 -348 0 -347 -410 -615 c-225 -338 -410 -618 -410 -622 0 -5 64 -88 142
-185 l142 -177 92 -235 c50 -130 120 -294 154 -365 62 -129 63 -130 82 -285
19 -152 23 -165 138 -496 65 -187 118 -347 118 -355 -1 -17 279 -721 292 -733
4 -5 140 -40 301 -79 l294 -69 356 -19 357 -19 268 -162 c148 -89 276 -169
285 -178 15 -15 153 -371 146 -377 -2 -2 -275 -124 -607 -273 -333 -148 -900
-412 -1260 -586 l-655 -318 -598 -475 c-426 -338 -603 -484 -613 -506 -7 -17
-75 -175 -149 -351 -75 -176 -185 -419 -244 -540 -99 -202 -114 -226 -174
-287 -98 -99 -229 -278 -222 -303 4 -11 7 -26 7 -32 1 -7 5 -13 9 -13 4 0 31
-45 61 -101 31 -59 61 -104 73 -109 11 -4 867 -175 1901 -380 l1882 -372 2498
331 c1375 182 3254 425 4177 541 l1677 211 993 -199 993 -198 745 248 c409
137 753 251 764 253 31 5 65 17 65 22 0 11 -253 504 -602 1172 l-383 735 -545
298 -545 299 -279 438 -279 437 -748 267 -747 267 -157 0 -158 0 -573 226
-572 225 -348 35 -348 34 -70 68 c-39 37 -194 184 -344 326 -150 143 -275 269
-277 280 -3 12 -54 284 -115 606 -61 322 -112 595 -115 608 -5 21 -3 22 77 22
l83 0 388 1183 387 1182 0 1268 0 1268 -300 776 c-165 427 -301 777 -303 778
-10 8 -1134 495 -1143 495 -6 0 -65 -47 -132 -104 l-121 -104 -43 9 c-165 33
-2105 369 -2131 369 -20 -1 -132 -50 -307 -135z m-1720 -2017 c-5 -18 -66
-267 -135 -553 -69 -286 -128 -527 -130 -536 -4 -11 68 -54 295 -174 222 -117
302 -164 305 -180 3 -11 35 -222 71 -470 36 -247 69 -453 72 -456 4 -4 261
-68 572 -144 311 -75 568 -139 572 -143 13 -14 318 -515 318 -523 0 -12 32
-16 -296 41 -159 27 -292 46 -296 42 -4 -4 -9 -111 -10 -237 l-3 -230 -197
234 -196 235 -349 122 c-191 68 -354 121 -360 119 -10 -3 -13 -115 -13 -515
l0 -510 195 -276 c107 -152 195 -279 195 -283 0 -12 -790 -195 -799 -185 -5 5
-53 110 -106 234 -54 124 -102 235 -109 247 -10 20 -32 -18 -220 -395 l-209
-418 87 -294 86 -295 -2 -255 -3 -255 -200 -72 c-110 -39 -209 -72 -220 -72
-17 -1 -35 44 -137 337 -109 314 -118 346 -132 467 -9 72 -16 137 -16 145 0 8
47 44 105 79 92 55 104 66 93 80 -7 9 -13 18 -15 20 -2 3 -84 -45 -180 -107
-23 -14 -24 -12 -84 114 -33 71 -101 232 -150 358 l-89 229 -135 168 -136 169
406 607 405 608 0 366 0 366 290 204 c159 112 286 206 282 210 -4 3 -124 21
-267 39 -143 18 -263 36 -267 39 -7 6 318 1670 327 1679 4 5 643 49 727 51
l66 1 -8 -32z m2550 -1646 c85 -185 174 -380 199 -432 25 -52 44 -98 43 -102
-1 -5 2 -7 7 -5 16 4 351 -306 351 -325 0 -19 -48 -98 -59 -98 -3 0 -12 -14
-19 -30 -8 -17 -18 -28 -23 -24 -5 3 -9 2 -8 -3 3 -19 -2 -34 -9 -29 -5 3 -9
0 -9 -7 0 -15 -32 -67 -42 -67 -3 0 -12 -14 -19 -30 -8 -17 -18 -28 -23 -24
-5 3 -9 2 -8 -3 3 -19 -2 -34 -9 -29 -5 3 -9 0 -9 -7 0 -15 -32 -67 -42 -67
-3 0 -12 -14 -19 -30 -8 -17 -18 -28 -23 -24 -5 3 -9 2 -8 -3 4 -22 -2 -34
-13 -27 -7 4 -10 3 -5 -1 4 -5 1 -18 -7 -30 -14 -21 -8 -32 91 -180 62 -94
103 -164 100 -174 -2 -10 -134 -167 -292 -349 l-288 -332 -318 0 c-245 0 -318
-3 -322 -12 -2 -7 3 -37 10 -67 8 -29 12 -56 9 -59 -3 -3 -2 -10 4 -17 11 -14
61 -264 250 -1255 78 -412 152 -770 163 -800 12 -30 22 -59 22 -65 0 -5 3 -12
7 -15 8 -7 108 -238 108 -251 0 -5 -7 -9 -15 -9 -8 0 -198 90 -422 199 -225
110 -413 201 -419 203 -14 4 -312 -253 -313 -269 -1 -7 8 -17 19 -23 11 -6 18
-15 15 -21 -4 -5 -3 -8 2 -7 13 4 73 -44 67 -54 -3 -5 -1 -7 4 -6 13 4 978
-822 975 -834 -2 -4 0 -7 5 -6 12 4 72 -45 66 -54 -3 -5 -2 -7 3 -6 13 4 73
-44 67 -54 -3 -5 -1 -7 4 -6 5 2 62 -42 127 -96 l117 -100 -6 -40 c-3 -23 -7
-58 -10 -79 -2 -20 -7 -55 -9 -77 -3 -22 -8 -58 -10 -80 -3 -22 -8 -58 -10
-80 -3 -22 -8 -59 -11 -83 -3 -23 -6 -49 -6 -57 -1 -8 -10 -84 -21 -168 -10
-84 -16 -159 -13 -167 4 -8 15 -15 26 -15 11 0 364 -54 785 -121 l765 -120
842 312 c462 171 857 320 876 331 89 51 1230 771 1230 777 0 3 -171 109 -380
234 -349 210 -416 257 -362 257 9 0 87 -7 172 -16 l155 -15 140 -81 c77 -44
227 -130 333 -191 l193 -112 -3 -69 -3 -70 -728 -474 -729 -474 -860 -309
c-473 -170 -870 -309 -883 -309 -13 0 -380 56 -817 124 l-793 125 -650 219
-650 220 -137 153 c-103 115 -137 160 -135 177 2 20 20 32 115 73 62 27 123
49 136 49 29 0 41 27 22 49 -8 9 -47 103 -86 209 l-72 192 -302 182 c-165 101
-304 182 -308 181 -4 -2 -132 4 -285 12 -153 8 -293 15 -310 15 -22 0 -33 5
-33 15 0 17 389 451 402 448 4 -2 7 1 5 6 -1 5 94 116 212 246 158 175 210
240 202 248 -13 13 9 36 -252 -253 -111 -124 -206 -224 -211 -223 -4 2 -7 -1
-5 -6 3 -12 -344 -397 -355 -393 -5 1 -7 -1 -4 -6 3 -5 -10 -24 -29 -42 l-33
-32 -79 17 c-43 9 -82 20 -88 23 -5 3 -20 7 -34 8 -13 2 -102 21 -196 44
l-173 41 -131 326 c-125 309 -143 362 -122 349 5 -4 11 -3 13 2 4 11 118 53
128 47 5 -3 10 -1 12 3 1 5 71 33 153 62 83 29 156 60 163 68 9 12 12 81 12
269 l0 253 -90 305 -90 305 173 345 c115 231 177 345 186 343 8 -2 53 -95 102
-208 48 -113 91 -210 96 -217 6 -9 119 14 462 97 249 60 456 111 458 114 3 3
-48 81 -113 173 -197 280 -204 290 -199 297 3 3 2 4 -1 1 -4 -2 -31 29 -60 71
l-54 74 0 466 0 467 32 -7 c18 -3 34 -10 38 -14 3 -4 12 -7 21 -8 19 -1 342
-115 349 -123 3 -3 10 -6 15 -6 20 0 155 -50 155 -57 0 -4 6 -5 14 -2 9 3 97
-96 252 -282 l239 -286 3 276 2 276 49 -5 c27 -3 82 -12 122 -20 41 -8 91 -17
111 -20 36 -4 305 -50 361 -61 26 -5 28 -4 18 14 -6 11 -7 23 -3 28 4 5 3 6
-2 2 -11 -9 -379 589 -371 603 4 5 2 9 -4 9 -6 0 -8 6 -5 14 3 8 1 17 -5 20
-6 4 -8 13 -5 20 3 8 1 17 -5 20 -6 4 -8 13 -5 20 3 8 0 17 -5 21 -6 3 -9 11
-6 16 4 5 3 15 -2 22 -4 6 -8 17 -8 22 -2 29 -18 86 -26 90 -4 3 -6 12 -3 19
3 8 1 17 -5 20 -6 4 -8 13 -5 20 3 8 1 17 -5 20 -6 4 -8 13 -5 20 3 8 1 17 -5
20 -6 4 -8 13 -5 20 3 8 1 17 -5 20 -6 4 -8 13 -5 20 3 8 0 17 -5 21 -6 3 -9
11 -6 16 4 5 3 15 -2 22 -4 6 -8 17 -8 22 -2 29 -18 86 -26 90 -4 3 -6 12 -3
19 3 8 1 17 -5 20 -6 4 -8 13 -5 20 3 8 1 17 -5 20 -6 4 -8 13 -5 20 3 8 1 17
-5 20 -6 4 -8 13 -5 20 3 8 1 17 -5 20 -6 4 -8 13 -5 20 3 8 1 17 -5 20 -6 4
-8 13 -5 20 3 8 0 17 -5 21 -6 3 -9 10 -6 15 3 5 0 21 -7 37 -6 15 -10 33 -9
40 1 6 -3 14 -8 18 -6 3 -8 12 -5 19 3 8 1 17 -5 20 -6 4 -8 13 -5 20 3 8 1
17 -5 20 -6 4 -8 13 -5 20 3 8 0 17 -5 21 -6 3 -9 11 -5 16 3 5 2 15 -3 22 -4
7 -8 21 -8 32 0 18 21 22 280 56 154 21 305 40 335 43 30 4 114 15 185 25 72
10 150 19 175 20 l45 1 155 -338z m654 -2026 l161 -240 285 -133 c156 -73 288
-137 293 -142 7 -7 217 -759 217 -776 0 -3 237 -6 527 -7 l527 -3 117 -620
c65 -341 121 -629 126 -641 4 -11 148 -153 318 -315 171 -162 311 -301 313
-310 2 -9 195 -131 452 -285 299 -179 449 -275 450 -286 0 -11 -191 -136 -587
-385 l-588 -368 -845 -314 -845 -313 -763 120 c-420 66 -766 122 -769 126 -5
4 76 690 93 791 5 29 -19 51 -720 650 -455 389 -724 626 -723 636 1 9 53 60
115 114 l114 98 46 -20 c26 -11 244 -118 485 -236 240 -119 437 -212 437 -206
0 5 -43 105 -96 222 -53 116 -102 230 -110 252 -7 22 -56 294 -109 605 -66
392 -117 658 -166 870 -56 243 -139 629 -139 647 0 2 132 3 293 3 l292 1 305
354 c168 195 311 353 319 352 8 -1 86 -110 175 -241z"/>
<path d="M6180 11660 c0 -5 76 -246 170 -536 93 -290 167 -531 164 -536 -3 -4
-1 -8 4 -8 6 0 18 -29 27 -65 16 -59 34 -80 49 -57 2 4 -47 167 -109 362 -63
194 -112 357 -110 361 3 4 1 9 -4 11 -8 3 -82 228 -85 258 0 8 -4 17 -7 20 -7
5 -49 136 -49 151 0 5 77 9 170 9 l170 0 0 -286 c0 -266 1 -285 18 -282 16 3
17 27 20 306 l2 302 -215 0 c-131 0 -215 -4 -215 -10z"/>
</g>
</svg>
